<svg xmlns="http://www.w3.org/2000/svg" viewBox="0 0 900 650" role="img"><rect width="900" height="650" rx="46" fill="#f3efe4"/><g fill="none" stroke="#111" stroke-width="2" opacity=".18"><path d="M0 120h900M0 250h900M0 380h900M0 510h900M150 0v650M300 0v650M450 0v650M600 0v650M750 0v650"/></g><rect x="65" y="70" width="770" height="82" rx="28" fill="#111"/><rect x="65" y="190" width="230" height="330" rx="34" fill="#1747ff"/><rect x="335" y="190" width="230" height="330" rx="34" fill="#111"/><rect x="605" y="190" width="230" height="330" rx="34" fill="#b8ff3c"/><g font-family="Inter,Arial,sans-serif" font-weight="900"><text x="95" y="123" font-size="31" fill="#fff">CRM OPERATIONS BOARD</text><text x="95" y="265" font-size="25" fill="#fff">PIPELINE</text><text x="365" y="265" font-size="25" fill="#fff">TASKS</text><text x="635" y="265" font-size="25" fill="#111">DATA</text></g><g stroke-linecap="round" stroke-width="10"><path d="M100 330h125M100 380h90M100 430h145" stroke="#fff" opacity=".8"/><path d="M370 330h125M370 380h70M370 430h145" stroke="#b8ff3c"/><path d="M640 330h125M640 380h90M640 430h145" stroke="#111" opacity=".75"/></g></svg>