<svg xmlns="http://www.w3.org/2000/svg" viewBox="0 0 900 650" role="img"><defs><linearGradient id="g" x1="0" x2="1" y1="0" y2="1"><stop stop-color="#1747ff"/><stop offset="1" stop-color="#b8ff3c"/></linearGradient><filter id="s" x="-20%" y="-20%" width="140%" height="140%"><feDropShadow dx="0" dy="28" stdDeviation="32" flood-opacity=".24"/></filter></defs><rect width="900" height="650" rx="46" fill="#111"/><path d="M70 500C180 330 316 242 480 236c142-5 232-70 344-168" fill="none" stroke="url(#g)" stroke-width="5" stroke-linecap="round" stroke-dasharray="14 18" opacity=".9"/><g filter="url(#s)"><rect x="70" y="84" width="250" height="160" rx="30" fill="#f3efe4"/><rect x="365" y="245" width="250" height="160" rx="30" fill="#b8ff3c"/><rect x="580" y="440" width="250" height="140" rx="30" fill="#1747ff"/></g><g font-family="Inter,Arial,sans-serif" font-weight="900" letter-spacing="-2"><text x="100" y="150" font-size="34" fill="#111">LEADS</text><text x="100" y="192" font-size="18" fill="#333">qualification claire</text><text x="395" y="314" font-size="34" fill="#111">FLOW</text><text x="395" y="356" font-size="18" fill="#333">actions automatisées</text><text x="610" y="505" font-size="34" fill="#fff">REPORT</text><text x="610" y="545" font-size="18" fill="#dbe5ff">décision rapide</text></g><g fill="#f3efe4" opacity=".9"><circle cx="748" cy="92" r="9"/><circle cx="780" cy="92" r="9"/><circle cx="812" cy="92" r="9"/></g></svg>